<svg width="24" height="24" fill="none" xmlns="http://www.w3.org/2000/svg"><circle cx="20.5" cy="12.5" r="1.5" fill="#CED4DA"/><path d="M2 11.5a.5.5 0 01.5-.5h18v1h-18a.5.5 0 01-.5-.5z" fill="#CED4DA"/><circle cx="16.5" cy="15.5" r="1.5" fill="#F8F9FA"/><circle cx="16.5" cy="7.5" r="1.5" fill="#F8F9FA"/><path d="M10 8.5a.5.5 0 01.5-.5h6v1h-6a.5.5 0 01-.5-.5zm-2 6a.5.5 0 01.5-.5h8v1h-8a.5.5 0 01-.5-.5z" fill="#F8F9FA"/><circle cx="5.5" cy="16.5" r=".5" fill="#D4A373"/><circle cx="6.5" cy="18.5" r=".5" fill="#D4A373"/><circle cx="7.5" cy="16.5" r=".5" fill="#D4A373"/><circle cx="8.5" cy="18.5" r=".5" fill="#D4A373"/><circle cx="9.5" cy="16.5" r=".5" fill="#D4A373"/><circle cx="10.5" cy="18.5" r=".5" fill="#D4A373"/><circle cx="11.5" cy="16.5" r=".5" fill="#D4A373"/><circle cx="6.5" cy="14.5" r=".5" fill="#D4A373"/></svg>