<svg width="24" height="24" fill="none" xmlns="http://www.w3.org/2000/svg"><path d="M2 10a4 4 0 118 0v4H6a4 4 0 01-4-4z" fill="#F8F9FA"/><path d="M5 8.5a5.5 5.5 0 1111 0V14H9.632A4.632 4.632 0 015 9.368V8.5z" fill="#F8F9FA"/><path d="M13 10.5a3.5 3.5 0 113.5 3.5H13v-3.5z" fill="#F8F9FA"/><path d="M11 11.5a2.5 2.5 0 015 0V14h-2.5a2.5 2.5 0 01-2.5-2.5zm6 0a2.5 2.5 0 112.5 2.5H17v-2.5z" fill="#CED4DA"/><path d="M13 10.5a3.5 3.5 0 117 0v.583A2.917 2.917 0 0117.083 14h-1.166A2.917 2.917 0 0113 11.083V10.5z" fill="#CED4DA"/><path d="M4.324 19.353l2.052-4.106a.447.447 0 01.8.4l-2.052 4.106a.447.447 0 01-.8-.4zm1.5 1l2.552-5.106a.447.447 0 01.8.4l-2.552 5.106a.447.447 0 01-.8-.4zm2.5-1l2.052-4.106a.447.447 0 11.8.4l-2.052 4.106a.447.447 0 01-.8-.4zm2.5-1l1.552-3.106a.447.447 0 11.8.4l-1.552 3.106a.447.447 0 11-.8-.4z" fill="#A2D2FF"/></svg>