<svg width="24" height="24" fill="none" xmlns="http://www.w3.org/2000/svg"><path d="M2 12a4 4 0 118 0v4H6a4 4 0 01-4-4z" fill="#F8F9FA"/><path d="M5 10.5a5.5 5.5 0 1111 0V16H9.632A4.632 4.632 0 015 11.368V10.5z" fill="#F8F9FA"/><path d="M13 12.5a3.5 3.5 0 113.5 3.5H13v-3.5z" fill="#F8F9FA"/><path d="M11 13.5a2.5 2.5 0 015 0V16h-2.5a2.5 2.5 0 01-2.5-2.5zm6 0a2.5 2.5 0 112.5 2.5H17v-2.5z" fill="#CED4DA"/><path d="M13 12.5a3.5 3.5 0 117 0v.583A2.917 2.917 0 0117.083 16h-1.166A2.917 2.917 0 0113 13.083V12.5z" fill="#CED4DA"/><rect x="5" y="17" width="4" height="1" rx=".5" fill="#F8F9FA"/><rect x="10" y="17" width="5" height="1" rx=".5" fill="#F8F9FA"/><rect x="7" y="19" width="4" height="1" rx=".5" fill="#F8F9FA"/><rect x="16" y="17" width="2" height="1" rx=".5" fill="#F8F9FA"/><rect x="12" y="19" width="5" height="1" rx=".5" fill="#F8F9FA"/></svg>