<svg width="24" height="24" fill="none" xmlns="http://www.w3.org/2000/svg"><path d="M2 11a4 4 0 118 0v4H6a4 4 0 01-4-4z" fill="#F8F9FA"/><path d="M5 9.5a5.5 5.5 0 1111 0V15H9.632A4.632 4.632 0 015 10.368V9.5z" fill="#F8F9FA"/><path d="M13 11.5a3.5 3.5 0 113.5 3.5H13v-3.5z" fill="#F8F9FA"/><path d="M11 12.5a2.5 2.5 0 015 0V15h-2.5a2.5 2.5 0 01-2.5-2.5zm6 0a2.5 2.5 0 112.5 2.5H17v-2.5z" fill="#CED4DA"/><path d="M13 11.5a3.5 3.5 0 117 0v.583A2.917 2.917 0 0117.083 15h-1.166A2.917 2.917 0 0113 12.083V11.5z" fill="#CED4DA"/><path fill-rule="evenodd" clip-rule="evenodd" d="M6.876 16.247l-1.552 3.106a.447.447 0 00.8.4l1.552-3.106a.447.447 0 00-.8-.4zm2 0l-1.552 3.106a.447.447 0 00.8.4l1.552-3.106a.447.447 0 00-.8-.4zm2 0l-1.552 3.106a.447.447 0 00.8.4l1.552-3.106a.447.447 0 00-.8-.4z" fill="#A2D2FF"/><circle cx="14.5" cy="16.5" r=".5" fill="#F8F9FA"/><circle cx="13.5" cy="18.5" r=".5" fill="#F8F9FA"/><circle cx="12.5" cy="20.5" r=".5" fill="#F8F9FA"/><circle cx="15.5" cy="18.5" r=".5" fill="#F8F9FA"/><circle cx="16.5" cy="16.5" r=".5" fill="#F8F9FA"/></svg>