<svg width="24" height="24" fill="none" xmlns="http://www.w3.org/2000/svg"><path d="M9 18a6 6 0 0 0 6-6c0-.25-.375-.289-.495-.07A4 4 0 1 1 9.07 6.496C9.288 6.375 9.25 6 9 6a6 6 0 1 0 0 12z" fill="#FDB728"/><rect x="9" y="11" width="4" height="1" rx=".5" fill="#F8F9FA"/><rect x="17" y="13" width="4" height="1" rx=".5" fill="#F8F9FA"/><rect x="14" y="11" width="5" height="1" rx=".5" fill="#F8F9FA"/><rect x="11" y="15" width="4" height="1" rx=".5" fill="#F8F9FA"/><rect x="16" y="15" width="3" height="1" rx=".5" fill="#F8F9FA"/><rect x="9" y="13" width="7" height="1" rx=".5" fill="#F8F9FA"/></svg>