<svg width="24" height="24" fill="none" xmlns="http://www.w3.org/2000/svg"><path d="M2 11a4 4 0 1 1 8 0v4H6a4 4 0 0 1-4-4z" fill="#F8F9FA"/><path d="M5 9.5a5.5 5.5 0 1 1 11 0V15H9.632A4.632 4.632 0 0 1 5 10.368V9.5z" fill="#F8F9FA"/><path d="M13 11.5a3.5 3.5 0 1 1 3.5 3.5H13v-3.5z" fill="#F8F9FA"/><path d="M11 12.5a2.5 2.5 0 0 1 5 0V15h-2.5a2.5 2.5 0 0 1-2.5-2.5zM17 12.5a2.5 2.5 0 1 1 2.5 2.5H17v-2.5z" fill="#CED4DA"/><path d="M13 11.5a3.5 3.5 0 1 1 7 0v.583A2.917 2.917 0 0 1 17.083 15h-1.166A2.917 2.917 0 0 1 13 12.083V11.5z" fill="#CED4DA"/><path d="m5.324 20.353 2.052-4.106a.447.447 0 0 1 .8.4l-2.052 4.106a.447.447 0 0 1-.8-.4zM7.324 20.353l2.052-4.106a.447.447 0 0 1 .8.4l-2.052 4.106a.447.447 0 0 1-.8-.4zM9.324 20.353l2.052-4.106a.447.447 0 1 1 .8.4l-2.052 4.106a.447.447 0 1 1-.8-.4z" fill="#A2D2FF"/></svg>