<svg width="24" height="24" fill="none" xmlns="http://www.w3.org/2000/svg"><path fill-rule="evenodd" clip-rule="evenodd" d="M19.92 8.17c.052-.235-.258-.361-.452-.22a2.5 2.5 0 0 1-3.492-3.492c.141-.194.015-.503-.22-.452a3.501 3.501 0 1 0 4.165 4.164z" fill="#FDB728"/><path d="M2 11.926a4 4 0 1 1 8 0v4H6a4 4 0 0 1-4-4z" fill="#F8F9FA"/><path d="M5 10.426a5.5 5.5 0 1 1 11 0v5.5H9.632A4.632 4.632 0 0 1 5 11.295v-.869z" fill="#F8F9FA"/><path d="M13 12.426a3.5 3.5 0 1 1 3.5 3.5H13v-3.5z" fill="#F8F9FA"/><path d="M11 13.426a2.5 2.5 0 0 1 5 0v2.5h-2.5a2.5 2.5 0 0 1-2.5-2.5zM17 13.426a2.5 2.5 0 1 1 2.5 2.5H17v-2.5z" fill="#CED4DA"/><path d="M13 12.426a3.5 3.5 0 1 1 7 0v.584a2.917 2.917 0 0 1-2.917 2.916h-1.166A2.917 2.917 0 0 1 13 13.01v-.584z" fill="#CED4DA"/><path d="m4.824 19.353 1.052-2.106a.447.447 0 0 1 .8.4l-1.052 2.106a.447.447 0 0 1-.8-.4zM6.824 19.353l1.052-2.106a.447.447 0 0 1 .8.4l-1.052 2.106a.447.447 0 0 1-.8-.4zM8.824 19.353l1.052-2.106a.447.447 0 0 1 .8.4l-1.052 2.106a.447.447 0 0 1-.8-.4z" fill="#A2D2FF"/></svg>