<svg width="24" height="24" fill="none" xmlns="http://www.w3.org/2000/svg"><path fill-rule="evenodd" clip-rule="evenodd" d="M19.92 9.244c.052-.235-.258-.361-.452-.22a2.5 2.5 0 0 1-3.492-3.492c.141-.194.015-.504-.22-.453a3.501 3.501 0 1 0 4.165 4.165z" fill="#FDB728"/><path d="M2 13a4 4 0 0 1 8 0v4H6a4 4 0 0 1-4-4z" fill="#F8F9FA"/><path d="M5 11.5a5.5 5.5 0 1 1 11 0V17H9.632A4.632 4.632 0 0 1 5 12.368V11.5z" fill="#F8F9FA"/><path d="M13 13.5a3.5 3.5 0 1 1 3.5 3.5H13v-3.5z" fill="#F8F9FA"/><path d="M11 14.5a2.5 2.5 0 0 1 5 0V17h-2.5a2.5 2.5 0 0 1-2.5-2.5zM17 14.5a2.5 2.5 0 1 1 2.5 2.5H17v-2.5z" fill="#CED4DA"/><path d="M13 13.5a3.5 3.5 0 1 1 7 0v.583A2.917 2.917 0 0 1 17.083 17h-1.166A2.917 2.917 0 0 1 13 14.083V13.5z" fill="#CED4DA"/></svg>