<svg width="24" height="24" fill="none" xmlns="http://www.w3.org/2000/svg"><path d="M2 12a4 4 0 1 1 8 0v4H6a4 4 0 0 1-4-4z" fill="#F8F9FA"/><path d="M5 10.5a5.5 5.5 0 1 1 11 0V16H9.632A4.632 4.632 0 0 1 5 11.368V10.5z" fill="#F8F9FA"/><path d="M13 12.5a3.5 3.5 0 1 1 3.5 3.5H13v-3.5z" fill="#F8F9FA"/><path d="M11 13.5a2.5 2.5 0 0 1 5 0V16h-2.5a2.5 2.5 0 0 1-2.5-2.5zM17 13.5a2.5 2.5 0 1 1 2.5 2.5H17v-2.5z" fill="#CED4DA"/><path d="M13 12.5a3.5 3.5 0 1 1 7 0v.583A2.917 2.917 0 0 1 17.083 16h-1.166A2.917 2.917 0 0 1 13 13.083V12.5z" fill="#CED4DA"/><circle cx="8.5" cy="17.5" r=".5" fill="#F8F9FA"/><circle cx="10.5" cy="17.5" r=".5" fill="#F8F9FA"/><circle cx="6.5" cy="17.5" r=".5" fill="#F8F9FA"/><circle cx="7.5" cy="19.5" r=".5" fill="#F8F9FA"/><circle cx="9.5" cy="19.5" r=".5" fill="#F8F9FA"/><circle cx="12.5" cy="17.5" r=".5" fill="#F8F9FA"/><circle cx="11.5" cy="19.5" r=".5" fill="#F8F9FA"/><circle cx="5.5" cy="19.5" r=".5" fill="#F8F9FA"/><circle cx="13.5" cy="19.5" r=".5" fill="#F8F9FA"/><circle cx="16.5" cy="17.5" r=".5" fill="#F8F9FA"/><circle cx="15.5" cy="19.5" r=".5" fill="#F8F9FA"/><circle cx="14.5" cy="17.5" r=".5" fill="#F8F9FA"/></svg>