<svg width="24" height="24" fill="none" xmlns="http://www.w3.org/2000/svg"><path d="M2 12a4 4 0 1 1 8 0v4H6a4 4 0 0 1-4-4z" fill="#F8F9FA"/><path d="M5 10.5a5.5 5.5 0 1 1 11 0V16H9.632A4.632 4.632 0 0 1 5 11.368V10.5z" fill="#F8F9FA"/><path d="M13 12.5a3.5 3.5 0 1 1 3.5 3.5H13v-3.5z" fill="#F8F9FA"/><path d="M11 13.5a2.5 2.5 0 0 1 5 0V16h-2.5a2.5 2.5 0 0 1-2.5-2.5zM17 13.5a2.5 2.5 0 1 1 2.5 2.5H17v-2.5z" fill="#CED4DA"/><path d="M13 12.5a3.5 3.5 0 1 1 7 0v.583A2.917 2.917 0 0 1 17.083 16h-1.166A2.917 2.917 0 0 1 13 13.083V12.5z" fill="#CED4DA"/><path d="m14 19 1.5-3h2L16 18h1.5L14 22l1.5-3H14z" fill="#FDB728"/><path d="m4.824 19.353 1.052-2.106a.447.447 0 0 1 .8.4l-1.052 2.106a.447.447 0 0 1-.8-.4zM6.324 20.353l1.552-3.106a.447.447 0 0 1 .8.4l-1.552 3.106a.447.447 0 0 1-.8-.4zM8.824 19.353l1.052-2.106a.447.447 0 0 1 .8.4l-1.052 2.106a.447.447 0 0 1-.8-.4zM10.824 19.353l1.052-2.106a.447.447 0 1 1 .8.4l-1.052 2.106a.447.447 0 1 1-.8-.4z" fill="#A2D2FF"/></svg>